<?xml version="1.0" standalone="no"?>
<!DOCTYPE svg PUBLIC "-//W3C//DTD SVG 20010904//EN"
 "http://www.w3.org/TR/2001/REC-SVG-20010904/DTD/svg10.dtd">
<svg version="1.0" xmlns="http://www.w3.org/2000/svg"
 width="3080.000000pt" height="890.000000pt" viewBox="0 0 3080.000000 890.000000"
 preserveAspectRatio="xMidYMid meet">
<metadata>
Created by potrace 1.15, written by Peter Selinger 2001-2017
</metadata>
<g transform="translate(0.000000,890.000000) scale(0.100000,-0.100000)"
fill="#000000" stroke="none">
<path d="M10945 8819 c-660 -209 -787 -252 -1210 -409 -132 -49 -298 -110
-370 -135 -268 -96 -1093 -443 -1415 -595 -96 -45 -240 -113 -320 -150 -224
-104 -417 -200 -625 -310 -104 -56 -275 -147 -380 -202 -278 -148 -290 -155
-405 -223 -58 -34 -132 -77 -165 -95 -148 -81 -634 -383 -895 -556 -351 -233
-546 -370 -873 -614 -482 -360 -722 -559 -1287 -1063 -201 -180 -640 -625
-897 -910 -28 -31 -56 -57 -61 -57 -20 0 -230 230 -291 320 -76 110 -139 249
-172 375 -19 73 -23 117 -23 230 -1 151 8 208 56 355 154 480 660 987 1323
1329 176 91 325 153 535 224 316 106 595 189 1045 311 445 120 1509 373 2025
482 124 26 148 35 300 113 91 46 156 81 145 78 -11 -3 -72 -11 -135 -17 -219
-21 -722 -98 -1310 -201 -166 -29 -488 -94 -690 -140 -96 -22 -207 -46 -247
-54 -227 -45 -891 -228 -1278 -352 -303 -97 -732 -253 -925 -336 -367 -158
-713 -330 -913 -456 -54 -33 -100 -61 -102 -61 -6 0 -199 -134 -286 -200 -423
-317 -692 -695 -749 -1052 -18 -110 -8 -331 19 -433 120 -457 421 -763 1053
-1071 79 -38 115 -61 109 -68 -45 -58 -251 -345 -342 -476 -401 -584 -722
-1179 -968 -1795 -89 -222 -217 -592 -208 -601 2 -3 242 52 533 121 734 174
1553 367 1716 405 l136 32 37 101 c212 575 396 965 687 1453 66 111 130 213
142 227 l21 26 165 -34 c566 -116 1280 -223 2035 -305 105 -11 208 -23 230
-25 53 -7 427 -42 535 -51 47 -3 86 -7 88 -9 1 -1 -29 -79 -68 -173 -38 -95
-70 -176 -70 -182 0 -7 346 -9 1037 -8 l1037 3 50 126 51 127 420 5 c231 3
435 9 453 12 34 8 41 19 17 29 -15 5 -288 31 -435 40 -171 11 -405 28 -407 30
-1 1 81 213 183 471 102 259 203 515 224 570 21 55 75 192 120 305 45 113 86
219 92 236 l10 30 347 69 c860 169 1629 375 2366 633 459 160 1027 406 1311
567 63 36 117 65 121 65 5 0 80 45 168 99 564 350 903 709 970 1028 55 259
-54 506 -313 711 -115 91 -160 121 -267 177 -50 26 -99 53 -110 60 -34 20
-206 96 -290 127 -286 107 -495 157 -1015 243 -407 67 -1078 143 -1426 161
l-130 7 -22 -58 c-12 -32 -21 -59 -20 -60 2 -1 97 -10 212 -20 115 -9 217 -18
225 -20 9 -1 43 -5 76 -9 891 -96 1644 -299 1969 -530 290 -208 299 -442 25
-700 -171 -161 -401 -302 -774 -476 -727 -339 -1539 -589 -2568 -789 -273 -54
-710 -129 -837 -145 -25 -4 -157 -22 -295 -41 -297 -40 -770 -97 -1055 -125
-113 -11 -223 -22 -245 -25 -22 -2 -78 -7 -125 -10 -70 -5 -357 -29 -715 -60
-33 -3 -143 -12 -245 -20 -102 -9 -210 -18 -240 -20 -594 -52 -768 -72 -806
-96 -18 -11 -112 -102 -210 -202 -413 -422 -599 -727 -503 -822 14 -15 44 -28
74 -34 28 -5 280 -10 561 -11 504 0 979 14 1414 44 107 8 197 13 198 11 5 -5
-452 -1143 -463 -1153 -12 -12 -851 115 -1260 189 -295 55 -812 170 -1055 235
-152 41 -561 163 -568 168 -4 5 221 299 320 420 327 396 710 799 1058 1112
411 370 587 516 1015 838 497 374 997 708 1590 1061 277 166 521 307 649 375
78 41 98 48 94 34 -3 -11 -179 -417 -392 -903 -212 -487 -383 -887 -381 -890
5 -4 473 52 949 115 235 31 728 113 986 164 107 21 214 41 237 45 40 6 43 10
62 58 10 29 62 160 114 292 52 132 143 362 201 510 59 149 156 394 216 545 60
151 165 419 235 595 69 176 179 455 245 620 65 165 143 363 173 440 56 142
233 590 268 678 13 33 15 47 6 46 -6 0 -111 -32 -232 -70z m-4345 -6703 c567
-61 895 -93 1170 -116 135 -11 272 -22 305 -25 33 -3 121 -10 195 -15 74 -6
136 -13 138 -15 3 -2 -4 -26 -15 -52 l-20 -48 -74 1 c-273 5 -564 16 -1204 49
-287 15 -732 49 -740 57 -3 2 11 46 31 97 28 71 40 91 52 87 10 -2 82 -12 162
-20z"/>
<path d="M19478 7663 c-70 -186 -217 -578 -328 -871 -110 -293 -200 -535 -200
-537 0 -3 124 -5 275 -5 l274 0 31 103 c17 56 37 120 44 142 l13 40 307 0 308
0 43 -140 42 -140 283 -3 c266 -2 282 -1 278 15 -4 15 -619 1654 -643 1716 -7
16 -31 17 -304 17 l-297 0 -126 -337z m518 -447 c46 -153 84 -283 84 -287 0
-5 -83 -9 -185 -9 -128 0 -185 3 -185 11 0 6 41 146 92 311 74 243 93 296 100
277 5 -13 47 -149 94 -303z"/>
<path d="M23990 7125 l0 -875 240 0 240 0 0 875 0 875 -240 0 -240 0 0 -875z"/>
<path d="M24700 7835 l0 -165 243 2 242 3 3 163 2 162 -245 0 -245 0 0 -165z"/>
<path d="M27760 7728 c0 -150 0 -283 0 -295 0 -21 -3 -20 -52 17 -193 146
-500 128 -668 -40 -99 -99 -149 -211 -171 -385 -29 -236 29 -479 152 -635 101
-127 296 -192 469 -156 106 23 174 59 247 134 l63 65 0 -92 0 -91 228 2 227 3
3 873 2 872 -250 0 -249 0 -1 -272z m-125 -560 c43 -22 95 -83 112 -132 24
-68 23 -242 -1 -305 -38 -101 -116 -157 -206 -149 -71 7 -122 44 -157 115 -26
54 -28 66 -28 178 0 74 5 139 14 169 17 58 74 120 123 135 36 11 111 5 143
-11z"/>
<path d="M21662 7534 c-94 -25 -156 -61 -220 -128 l-62 -64 -1 41 c0 23 0 63
1 90 l1 47 -230 0 -231 0 0 -875 0 -875 245 0 245 0 0 301 0 300 43 -35 c94
-77 250 -124 367 -111 284 31 460 224 489 538 25 274 -40 503 -186 654 -107
110 -302 160 -461 117z m31 -355 c45 -23 97 -84 114 -133 13 -38 18 -81 18
-166 -1 -123 -18 -185 -68 -238 -48 -52 -124 -68 -201 -42 -52 17 -112 88
-132 156 -21 73 -16 239 10 299 21 49 70 103 111 121 37 16 119 18 148 3z"/>
<path d="M23188 7535 c-93 -24 -147 -55 -219 -128 l-69 -69 0 91 0 91 -225 0
-225 0 0 -875 0 -875 245 0 245 0 0 302 0 302 33 -31 c52 -51 171 -102 268
-115 269 -36 500 129 576 412 26 94 25 378 -1 470 -57 200 -176 352 -316 404
-92 35 -224 43 -312 21z m29 -356 c38 -14 81 -56 104 -102 43 -83 42 -293 -1
-383 -49 -100 -160 -135 -261 -83 -82 42 -120 129 -120 279 0 107 17 174 55
224 48 63 149 93 223 65z"/>
<path d="M25895 7539 c-256 -37 -452 -199 -529 -436 -38 -114 -37 -322 0 -438
33 -101 87 -188 164 -266 61 -61 89 -81 150 -106 232 -96 602 -92 820 10 46
21 87 53 141 106 73 73 136 157 125 168 -2 3 -108 15 -235 26 l-231 21 -37
-36 c-53 -51 -116 -78 -186 -78 -109 0 -191 59 -226 162 -12 34 -21 68 -21 75
0 11 93 13 486 13 l487 0 -6 128 c-3 70 -13 156 -22 192 -52 201 -186 354
-364 416 -137 48 -357 66 -516 43z m258 -290 c74 -20 128 -97 152 -216 l7 -33
-241 0 c-179 0 -241 3 -241 12 0 6 7 38 16 69 39 138 166 208 307 168z"/>
<path d="M24700 6885 l0 -635 243 2 242 3 3 633 2 632 -245 0 -245 0 0 -635z"/>
<path d="M16402 5343 l3 -218 273 -3 272 -2 0 -655 0 -655 270 0 270 0 0 655
0 655 278 2 277 3 0 215 0 215 -823 3 -822 2 2 -217z"/>
<path d="M21070 4685 l0 -875 244 0 245 0 3 373 c4 396 5 408 56 476 30 41 76
61 139 61 61 0 112 -26 138 -70 19 -33 20 -54 23 -437 l3 -403 244 0 245 0 0
453 c0 501 -4 541 -61 648 -77 145 -222 207 -435 188 -110 -10 -182 -40 -275
-115 l-79 -64 0 320 0 320 -245 0 -245 0 0 -875z"/>
<path d="M25670 4685 l0 -875 245 0 245 0 -2 873 -3 872 -242 3 -243 2 0 -875z"/>
<path d="M18600 5099 c-240 -17 -443 -145 -539 -340 -50 -101 -71 -193 -71
-316 0 -200 61 -357 189 -483 129 -128 245 -169 501 -177 172 -5 290 7 397 43
76 25 179 92 233 151 54 59 110 136 110 150 0 5 -105 19 -232 31 l-233 21 -40
-38 c-51 -49 -109 -71 -186 -71 -133 0 -210 70 -243 223 l-6 27 491 0 491 0
-6 98 c-15 201 -48 322 -121 429 -93 139 -281 236 -479 249 -39 3 -91 6 -116
7 -25 2 -88 0 -140 -4z m236 -310 c51 -24 92 -81 111 -151 24 -96 45 -88 -227
-88 l-240 0 6 28 c17 78 26 102 46 132 69 101 189 132 304 79z"/>
<path d="M20145 5099 c-164 -10 -256 -39 -358 -112 -125 -90 -215 -215 -248
-347 -9 -35 -14 -111 -14 -210 0 -132 3 -165 22 -225 45 -142 156 -273 285
-339 130 -65 205 -79 433 -80 181 -1 208 1 281 22 159 46 287 141 364 272 35
60 78 167 69 174 -5 4 -407 47 -436 46 -16 0 -27 -10 -38 -36 -42 -101 -129
-157 -241 -156 -142 2 -229 84 -256 241 -15 90 1 213 37 287 38 77 111 125
202 131 120 9 201 -31 239 -118 10 -21 22 -39 27 -39 4 0 54 7 110 15 164 24
317 45 327 45 5 0 0 24 -11 53 -64 162 -191 287 -343 336 -121 39 -265 52
-451 40z"/>
<path d="M23430 5099 c-123 -11 -201 -50 -312 -157 l-68 -65 0 101 0 102 -225
0 -225 0 0 -635 0 -635 245 0 245 0 0 350 c0 366 5 426 43 481 36 52 71 72
135 77 77 5 128 -18 156 -73 20 -38 21 -57 24 -437 l3 -398 244 0 245 0 0 438
c0 522 -8 590 -84 697 -89 124 -220 172 -426 154z"/>
<path d="M24695 5099 c-173 -11 -321 -76 -440 -194 -132 -130 -191 -293 -182
-500 8 -174 61 -304 172 -419 140 -146 342 -215 597 -203 212 9 369 69 487
187 122 121 179 251 188 431 12 228 -56 404 -207 534 -152 132 -341 182 -615
164z m166 -339 c52 -15 113 -72 140 -132 20 -46 23 -69 24 -178 0 -152 -13
-204 -68 -266 -50 -57 -88 -74 -164 -74 -151 0 -233 111 -234 319 -1 139 21
212 81 271 63 64 136 83 221 60z"/>
<path d="M26930 5099 c-362 -24 -620 -298 -620 -659 0 -249 115 -452 320 -567
116 -65 239 -93 407 -93 434 0 723 265 723 664 0 319 -189 561 -495 635 -91
23 -198 29 -335 20z m171 -340 c56 -17 104 -62 136 -127 26 -54 28 -64 28
-192 0 -120 -3 -141 -23 -185 -28 -60 -75 -112 -119 -131 -18 -8 -58 -14 -90
-14 -153 0 -235 115 -236 330 -1 129 22 200 83 260 64 65 137 84 221 59z"/>
<path d="M28275 5098 c-86 -8 -139 -27 -210 -73 -90 -60 -152 -143 -189 -253
-45 -133 -53 -350 -17 -492 30 -120 95 -228 185 -307 176 -155 477 -148 646
15 l52 50 -4 -151 c-3 -139 -5 -156 -28 -195 -44 -79 -162 -113 -263 -78 -48
18 -76 42 -94 84 -7 18 -21 32 -31 32 -14 0 -180 19 -406 45 l-49 6 5 -89 c12
-204 129 -324 362 -373 123 -26 443 -28 561 -4 171 34 300 124 369 254 66 126
66 123 66 854 l0 657 -227 -2 -228 -3 -3 -88 -3 -88 -50 55 c-113 123 -238
164 -444 144z m323 -364 c89 -37 133 -110 140 -236 11 -195 -66 -303 -215
-302 -76 1 -129 32 -169 100 -51 86 -44 292 12 377 45 69 149 96 232 61z"/>
<path d="M29313 5068 c2 -7 64 -155 137 -328 188 -448 360 -859 377 -901 14
-34 13 -39 -11 -87 -29 -57 -71 -93 -130 -112 -44 -14 -194 -8 -259 11 -22 6
-41 8 -44 5 -3 -2 3 -78 14 -167 l18 -163 34 -7 c111 -23 375 -28 468 -9 92
19 175 63 228 122 56 62 126 202 193 388 27 74 120 326 207 560 243 657 255
690 255 695 0 3 -107 5 -238 5 l-238 0 -119 -419 c-66 -231 -123 -414 -127
-408 -3 7 -22 64 -41 127 -20 63 -76 246 -125 405 l-89 290 -258 3 c-204 2
-256 0 -252 -10z"/>
<path d="M20623 3131 c-191 -31 -319 -84 -432 -179 -102 -88 -147 -145 -210
-270 -106 -211 -121 -545 -37 -796 35 -103 65 -160 128 -243 118 -155 257
-239 468 -284 139 -29 409 -32 545 -5 168 33 348 108 512 214 l73 47 0 373 0
372 -420 0 -420 0 0 -180 0 -180 183 -2 182 -3 3 -81 3 -81 -83 -42 c-105 -52
-181 -71 -283 -71 -198 0 -326 97 -376 285 -29 108 -32 357 -5 454 46 169 136
259 290 291 153 31 303 -32 364 -156 l21 -40 253 46 253 46 -2 29 c-4 45 -75
185 -126 244 -89 104 -186 162 -327 193 -95 22 -461 34 -557 19z"/>
<path d="M10393 2659 c-442 -41 -758 -469 -668 -904 68 -328 330 -567 663
-605 307 -35 623 138 757 414 59 121 78 204 77 341 0 173 -44 306 -147 450
-53 73 -101 120 -181 174 -155 104 -320 147 -501 130z m467 -178 c111 -42 216
-156 252 -274 17 -56 20 -85 15 -156 -6 -96 -20 -138 -72 -217 -71 -106 -184
-171 -317 -183 -188 -16 -344 74 -431 249 -30 61 -32 70 -32 180 0 109 2 118
32 180 35 71 108 155 163 188 35 21 104 46 150 56 51 10 186 -3 240 -23z"/>
<path d="M22516 2644 c-62 -22 -104 -61 -157 -142 l-49 -75 0 102 0 101 -225
0 -225 0 0 -635 0 -635 245 0 245 0 0 278 c0 300 9 413 41 499 24 62 70 120
108 135 38 14 124 11 167 -7 20 -8 39 -14 41 -11 8 8 143 321 143 332 0 12
-70 45 -135 63 -55 15 -152 13 -199 -5z"/>
<path d="M23400 2653 c-246 -37 -427 -159 -527 -356 -87 -172 -84 -445 7 -615
112 -211 330 -336 605 -347 255 -11 446 55 596 205 227 228 239 654 24 897
-93 106 -251 187 -415 213 -62 9 -236 12 -290 3z m223 -347 c88 -38 138 -135
145 -281 10 -231 -75 -359 -238 -358 -72 1 -120 23 -166 77 -49 58 -68 129
-68 256 1 160 47 260 139 301 48 22 142 25 188 5z"/>
<path d="M26653 2645 c-82 -22 -132 -52 -205 -123 l-68 -65 0 86 0 87 -230 0
-230 0 0 -875 0 -875 245 0 245 0 0 300 0 301 53 -40 c161 -122 367 -143 542
-56 186 92 281 248 305 502 31 326 -90 616 -300 723 -100 50 -246 64 -357 35z
m57 -364 c82 -43 126 -164 117 -316 -6 -101 -19 -145 -55 -193 -38 -52 -78
-72 -145 -72 -69 0 -101 15 -149 68 -52 58 -63 99 -63 237 0 111 2 124 29 178
38 79 96 117 176 117 35 0 68 -7 90 -19z"/>
<path d="M24392 2143 c4 -482 4 -489 27 -551 41 -112 117 -190 228 -233 48
-18 78 -23 168 -23 173 0 267 39 389 158 l66 65 0 -99 0 -100 228 2 227 3 3
633 2 632 -244 0 -244 0 -4 -372 c-3 -368 -3 -374 -27 -426 -13 -29 -37 -63
-53 -77 -62 -52 -162 -56 -220 -7 -57 48 -58 54 -58 487 l0 395 -246 0 -245 0
3 -487z"/>
</g>
</svg>
