<?xml version="1.0" standalone="no"?>
<!DOCTYPE svg PUBLIC "-//W3C//DTD SVG 20010904//EN"
 "http://www.w3.org/TR/2001/REC-SVG-20010904/DTD/svg10.dtd">
<svg version="1.0" xmlns="http://www.w3.org/2000/svg"
 width="1226.000000pt" height="752.000000pt" viewBox="0 0 1226.000000 752.000000"
 preserveAspectRatio="xMidYMid meet">
<metadata>
Created by potrace 1.15, written by Peter Selinger 2001-2017
</metadata>
<g transform="translate(0.000000,752.000000) scale(0.100000,-0.100000)"
fill="#000000" stroke="none">
<path d="M9215 7469 c-2613 -813 -4813 -2001 -6540 -3533 -194 -172 -714 -686
-863 -853 l-91 -102 -81 81 c-109 109 -171 194 -230 313 -71 142 -92 231 -93
385 -1 145 21 249 83 393 186 432 722 893 1310 1127 460 183 1373 431 2571
699 l354 79 135 66 c74 36 140 68 145 70 90 32 -448 -38 -995 -130 -1350 -227
-2555 -587 -3370 -1005 -630 -324 -1049 -693 -1201 -1061 -79 -190 -95 -402
-45 -592 30 -118 115 -297 179 -382 130 -172 353 -340 641 -485 l162 -82 -108
-145 c-380 -508 -716 -1089 -945 -1632 -110 -260 -244 -643 -230 -656 4 -4
461 100 1016 231 l1009 238 52 146 c147 406 357 841 596 1232 59 97 91 139
104 139 10 0 62 -9 116 -20 571 -118 1381 -232 2173 -305 145 -13 265 -25 266
-27 2 -2 -23 -68 -56 -148 -32 -80 -59 -148 -59 -152 0 -5 398 -8 883 -8 l884
0 42 109 41 109 363 5 c199 2 372 8 385 12 30 10 23 27 -13 37 -31 8 -323 33
-542 46 -73 5 -135 11 -138 14 -6 6 510 1327 523 1340 4 4 135 32 292 63 1840
363 3322 967 3911 1593 275 292 338 564 188 818 -49 85 -187 219 -304 296
-113 75 -341 189 -489 243 -208 77 -503 144 -886 204 -355 55 -949 118 -1159
123 l-104 3 -23 -55 -22 -55 101 -7 c620 -44 1264 -162 1642 -300 153 -56 328
-147 406 -211 329 -272 97 -591 -696 -959 -812 -377 -1905 -658 -3225 -828
-517 -66 -869 -101 -1825 -180 -562 -47 -818 -71 -903 -85 -95 -17 -536 -504
-632 -698 -54 -110 -53 -184 3 -214 29 -16 73 -18 427 -21 457 -5 1118 16
1392 43 l57 6 -180 -448 c-100 -246 -188 -464 -195 -484 l-15 -36 -52 8 c-29
5 -151 22 -272 39 -583 81 -1185 199 -1640 321 -152 41 -447 128 -453 134 -5
5 155 216 265 350 369 451 837 912 1348 1331 605 495 1341 988 2186 1465 89
49 163 89 164 87 2 -2 -144 -343 -325 -758 -181 -414 -327 -756 -325 -759 7
-6 544 59 865 105 320 45 493 74 782 130 l237 46 26 67 c30 74 1136 2872 1195
3024 l38 97 -36 -1 c-20 0 -109 -23 -197 -50z m-3428 -5689 c380 -41 821 -82
1118 -101 99 -7 181 -13 183 -14 2 -2 -4 -20 -13 -41 l-15 -37 -263 7 c-358 9
-737 29 -1343 72 l-91 7 29 73 c17 41 32 74 34 74 1 0 164 -18 361 -40z"/>
<path d="M8692 2265 c-123 -27 -259 -108 -347 -207 -54 -62 -118 -187 -140
-273 -19 -77 -19 -234 0 -310 59 -226 230 -402 461 -471 81 -25 257 -25 338 0
187 56 339 184 417 351 44 93 59 168 58 280 l-1 100 -14 -58 c-33 -136 -124
-256 -235 -309 -282 -136 -597 26 -649 333 -30 178 62 366 225 460 67 38 181
63 259 56 l61 -5 -43 19 c-101 47 -265 61 -390 34z"/>
</g>
</svg>
